<svg width="685" height="270" viewBox="0 0 685 270" fill="none" xmlns="http://www.w3.org/2000/svg">
<path d="M41.368 47H34.84V6.232H11.672V47H5.144V0.599998H41.368V47ZM50.188 12.568H56.012V18.008C58.316 13.9973 62.0707 11.992 67.276 11.992C71.4147 11.992 74.892 13.6133 77.708 16.856C80.5667 20.0987 81.996 24.4507 81.996 29.912C81.996 35.416 80.5667 39.7893 77.708 43.032C74.892 46.232 71.4147 47.832 67.276 47.832C62.0707 47.832 58.316 45.8267 56.012 41.816V58.2H50.188V12.568ZM58.636 20.248C56.716 22.424 55.756 25.6453 55.756 29.912C55.756 34.1787 56.716 37.4 58.636 39.576C60.5987 41.752 62.988 42.84 65.804 42.84C68.8333 42.84 71.2227 41.7093 72.972 39.448C74.764 37.144 75.66 33.9653 75.66 29.912C75.66 25.8587 74.764 22.7013 72.972 20.44C71.2227 18.136 68.8333 16.984 65.804 16.984C62.988 16.984 60.5987 18.072 58.636 20.248ZM110.564 47V21.016L92.772 47H86.948V12.568H92.772V38.552L110.564 12.568H116.388V47H110.564ZM124.02 12.568H138.997C147.359 12.568 151.541 15.4907 151.541 21.336C151.541 25.048 149.941 27.5653 146.74 28.888C150.879 30.0827 152.949 32.7707 152.949 36.952C152.949 40.3653 151.775 42.904 149.429 44.568C147.082 46.1893 143.946 47 140.021 47H124.02V12.568ZM129.844 27.032H138.612C140.874 27.032 142.58 26.6693 143.733 25.944C144.885 25.176 145.461 23.8533 145.461 21.976C145.461 20.312 144.885 19.1813 143.733 18.584C142.58 17.944 140.81 17.624 138.42 17.624H129.844V27.032ZM129.844 31.832V41.944H139.125C144.287 41.944 146.868 40.2587 146.868 36.888C146.868 35.0107 146.228 33.7093 144.948 32.984C143.711 32.216 141.706 31.832 138.932 31.832H129.844ZM187.61 31.704H161.114C161.2 35.2027 162.288 37.912 164.378 39.832C166.512 41.752 168.965 42.712 171.738 42.712C176.346 42.712 179.482 40.8133 181.146 37.016H187.162C186.352 40.1307 184.581 42.712 181.85 44.76C179.12 46.808 175.749 47.832 171.738 47.832C166.448 47.832 162.309 46.1467 159.322 42.776C156.336 39.4053 154.842 35.096 154.842 29.848C154.842 24.472 156.421 20.1627 159.578 16.92C162.736 13.6347 166.725 11.992 171.546 11.992C176.709 11.992 180.762 13.8907 183.706 17.688C186.65 21.4427 187.952 26.1147 187.61 31.704ZM171.546 16.984C168.773 16.984 166.405 17.7947 164.442 19.416C162.522 21.0373 161.434 23.4693 161.178 26.712H181.466C181.381 24.1093 180.442 21.848 178.65 19.928C176.858 17.9653 174.49 16.984 171.546 16.984ZM216.511 17.624H204.735V47H198.911V17.624H187.135V12.568H216.511V17.624ZM233.002 11.992C236.97 11.992 240.234 13.208 242.794 15.64C245.397 18.072 246.933 20.888 247.403 24.088H241.514C241.088 22.04 240.064 20.376 238.442 19.096C236.821 17.7733 234.88 17.112 232.618 17.112C229.845 17.112 227.498 18.2 225.578 20.376C223.658 22.552 222.698 25.688 222.698 29.784C222.698 33.9227 223.658 37.1227 225.578 39.384C227.498 41.6027 229.845 42.712 232.618 42.712C234.965 42.712 236.97 42.0507 238.634 40.728C240.298 39.3627 241.344 37.72 241.77 35.8H247.786C247.146 39.128 245.397 41.9653 242.538 44.312C239.722 46.6587 236.352 47.832 232.426 47.832C227.52 47.832 223.616 46.168 220.714 42.84C217.813 39.512 216.362 35.1813 216.362 29.848C216.362 24.6427 217.877 20.376 220.906 17.048C223.936 13.6773 227.968 11.992 233.002 11.992ZM276.719 17.624H264.943V47H259.119V17.624H247.343V12.568H276.719V17.624ZM280.383 12.568H295.359C303.722 12.568 307.903 15.4907 307.903 21.336C307.903 25.048 306.303 27.5653 303.103 28.888C307.242 30.0827 309.311 32.7707 309.311 36.952C309.311 40.3653 308.138 42.904 305.791 44.568C303.444 46.1893 300.308 47 296.383 47H280.383V12.568ZM286.207 27.032H294.975C297.236 27.032 298.943 26.6693 300.095 25.944C301.247 25.176 301.823 23.8533 301.823 21.976C301.823 20.312 301.247 19.1813 300.095 18.584C298.943 17.944 297.172 17.624 294.783 17.624H286.207V27.032ZM286.207 31.832V41.944H295.487C300.65 41.944 303.231 40.2587 303.231 36.888C303.231 35.0107 302.591 33.7093 301.311 32.984C300.074 32.216 298.068 31.832 295.295 31.832H286.207ZM311.845 58.2V53.336H314.213C316.389 53.336 317.946 53.016 318.885 52.376C319.866 51.736 320.72 50.1787 321.445 47.704L321.701 47L309.285 12.568H315.749L324.517 39.128L333.029 12.568H339.109L326.821 48.472C325.882 51.16 325.008 53.1227 324.197 54.36C323.429 55.64 322.32 56.6 320.869 57.24C319.418 57.88 317.413 58.2 314.853 58.2H311.845ZM370.379 11.992C374.816 11.992 378.677 13.528 381.963 16.6C385.248 19.672 386.891 24.1093 386.891 29.912C386.891 35.7147 385.248 40.152 381.963 43.224C378.677 46.296 374.816 47.832 370.379 47.832C366.453 47.832 362.955 46.488 359.883 43.8C356.853 41.0693 355.147 37.1227 354.763 31.96H347.915V47H342.091V12.568H347.915V26.904H354.891C355.445 21.9973 357.195 18.2853 360.139 15.768C363.125 13.2507 366.539 11.992 370.379 11.992ZM370.379 42.712C373.28 42.712 375.712 41.624 377.675 39.448C379.68 37.272 380.683 34.0933 380.683 29.912C380.683 25.6027 379.701 22.4027 377.739 20.312C375.776 18.1787 373.323 17.112 370.379 17.112C367.691 17.112 365.429 18.1573 363.595 20.248C361.803 22.296 360.907 25.5173 360.907 29.912C360.907 34.2213 361.824 37.4427 363.659 39.576C365.493 41.6667 367.733 42.712 370.379 42.712ZM389.957 47V39.64H397.317V47.512L393.413 55.896H389.701L393.093 47H389.957ZM445.473 12.568V47H439.649V17.624H422.945V47H417.121V12.568H445.473ZM474.444 32.6V30.424C468.599 30.9787 464.247 31.7893 461.388 32.856C458.572 33.9227 457.164 35.5653 457.164 37.784C457.164 39.448 457.761 40.7707 458.956 41.752C460.151 42.7333 461.772 43.224 463.82 43.224C466.892 43.224 469.431 42.392 471.436 40.728C473.441 39.064 474.444 36.3547 474.444 32.6ZM462.54 47.832C459.169 47.832 456.353 46.9573 454.092 45.208C451.831 43.416 450.7 40.984 450.7 37.912C450.7 35.9493 451.212 34.264 452.236 32.856C453.303 31.448 454.924 30.296 457.1 29.4C459.319 28.4613 461.729 27.736 464.332 27.224C466.935 26.712 470.156 26.2427 473.996 25.816V24.984C473.996 19.3947 471.393 16.6 466.188 16.6C463.799 16.6 461.921 17.1973 460.556 18.392C459.191 19.5867 458.444 21.272 458.316 23.448H452.3C452.556 19.9067 454.028 17.0907 456.716 15C459.447 12.9093 462.583 11.864 466.124 11.864C470.86 11.864 474.337 13.016 476.556 15.32C478.775 17.624 479.863 21.208 479.82 26.072L479.756 34.008C479.713 39.5973 480.012 43.928 480.652 47H474.764C474.508 45.336 474.359 43.7573 474.316 42.264C472.14 45.976 468.215 47.832 462.54 47.832ZM486.578 12.568H492.402V18.008C494.706 13.9973 498.461 11.992 503.666 11.992C507.805 11.992 511.282 13.6133 514.098 16.856C516.957 20.0987 518.386 24.4507 518.386 29.912C518.386 35.416 516.957 39.7893 514.098 43.032C511.282 46.232 507.805 47.832 503.666 47.832C498.461 47.832 494.706 45.8267 492.402 41.816V58.2H486.578V12.568ZM495.026 20.248C493.106 22.424 492.146 25.6453 492.146 29.912C492.146 34.1787 493.106 37.4 495.026 39.576C496.989 41.752 499.378 42.84 502.194 42.84C505.223 42.84 507.613 41.7093 509.362 39.448C511.154 37.144 512.05 33.9653 512.05 29.912C512.05 25.8587 511.154 22.7013 509.362 20.44C507.613 18.136 505.223 16.984 502.194 16.984C499.378 16.984 496.989 18.072 495.026 20.248ZM547.621 17.624H535.845V47H530.021V17.624H518.245V12.568H547.621V17.624ZM579.957 47H574.133V31.96H557.109V47H551.285V12.568H557.109V26.904H574.133V12.568H579.957V47ZM617.625 31.704H591.129C591.215 35.2027 592.303 37.912 594.393 39.832C596.527 41.752 598.98 42.712 601.753 42.712C606.361 42.712 609.497 40.8133 611.161 37.016H617.177C616.367 40.1307 614.596 42.712 611.865 44.76C609.135 46.808 605.764 47.832 601.753 47.832C596.463 47.832 592.324 46.1467 589.337 42.776C586.351 39.4053 584.857 35.096 584.857 29.848C584.857 24.472 586.436 20.1627 589.593 16.92C592.751 13.6347 596.74 11.992 601.561 11.992C606.724 11.992 610.777 13.8907 613.721 17.688C616.665 21.4427 617.967 26.1147 617.625 31.704ZM601.561 16.984C598.788 16.984 596.42 17.7947 594.457 19.416C592.537 21.0373 591.449 23.4693 591.193 26.712H611.481C611.396 24.1093 610.457 21.848 608.665 19.928C606.873 17.9653 604.505 16.984 601.561 16.984ZM622.556 12.568H628.38V18.008C630.684 13.9973 634.438 11.992 639.644 11.992C643.782 11.992 647.26 13.6133 650.076 16.856C652.934 20.0987 654.364 24.4507 654.364 29.912C654.364 35.416 652.934 39.7893 650.076 43.032C647.26 46.232 643.782 47.832 639.644 47.832C634.438 47.832 630.684 45.8267 628.38 41.816V58.2H622.556V12.568ZM631.004 20.248C629.084 22.424 628.124 25.6453 628.124 29.912C628.124 34.1787 629.084 37.4 631.004 39.576C632.966 41.752 635.356 42.84 638.172 42.84C641.201 42.84 643.59 41.7093 645.34 39.448C647.132 37.144 648.028 33.9653 648.028 29.912C648.028 25.8587 647.132 22.7013 645.34 20.44C643.59 18.136 641.201 16.984 638.172 16.984C635.356 16.984 632.966 18.072 631.004 20.248ZM31.384 117H24.472L11.672 76.552V117H5.144V70.6H16.088L27.928 109.256L39.768 70.6H50.712V117H44.184V76.552L31.384 117ZM89.643 101.704H63.147C63.2323 105.203 64.3203 107.912 66.411 109.832C68.5443 111.752 70.9977 112.712 73.771 112.712C78.379 112.712 81.515 110.813 83.179 107.016H89.195C88.3843 110.131 86.6137 112.712 83.883 114.76C81.1523 116.808 77.7817 117.832 73.771 117.832C68.4803 117.832 64.3417 116.147 61.355 112.776C58.3683 109.405 56.875 105.096 56.875 99.848C56.875 94.472 58.4537 90.1627 61.611 86.92C64.7683 83.6347 68.7577 81.992 73.579 81.992C78.7417 81.992 82.795 83.8907 85.739 87.688C88.683 91.4427 89.9843 96.1147 89.643 101.704ZM73.579 86.984C70.8057 86.984 68.4377 87.7947 66.475 89.416C64.555 91.0373 63.467 93.4693 63.211 96.712H83.499C83.4137 94.1093 82.475 91.848 80.683 89.928C78.891 87.9653 76.523 86.984 73.579 86.984ZM123.245 117H117.421V101.96H100.397V117H94.573V82.568H100.397V96.904H117.421V82.568H123.245V117ZM156.305 82.568V117H150.481V104.776H144.401C143.974 104.776 143.654 104.755 143.441 104.712L134.097 117H126.865L137.297 103.112C132.433 101.448 130.001 98.1413 130.001 93.192C130.001 89.6933 131.11 87.048 133.329 85.256C135.59 83.464 138.748 82.568 142.801 82.568H156.305ZM150.481 87.624H143.121C138.342 87.624 135.953 89.608 135.953 93.576C135.953 97.672 138.513 99.72 143.633 99.72H150.481V87.624ZM195.285 98.952C197.29 99.5067 198.954 100.488 200.277 101.896C201.6 103.261 202.261 105.032 202.261 107.208C202.261 110.707 200.874 113.352 198.101 115.144C195.328 116.936 191.872 117.832 187.733 117.832C183.85 117.832 180.586 116.893 177.941 115.016C175.296 113.096 173.674 110.259 173.077 106.504H178.965C179.904 110.813 182.954 112.968 188.117 112.968C190.549 112.968 192.469 112.477 193.877 111.496C195.328 110.472 196.053 109.128 196.053 107.464C196.053 103.709 193.557 101.832 188.565 101.832H183.061V97.032H188.245C190.293 97.032 191.872 96.584 192.981 95.688C194.133 94.7493 194.709 93.4053 194.709 91.656C194.709 90.0773 194.09 88.904 192.853 88.136C191.616 87.3253 189.994 86.92 187.989 86.92C183.125 86.92 180.352 89.0107 179.669 93.192H173.653C174.25 89.5227 175.808 86.7067 178.325 84.744C180.842 82.7813 183.957 81.8 187.669 81.8C191.296 81.8 194.368 82.6533 196.885 84.36C199.445 86.0667 200.725 88.456 200.725 91.528C200.725 94.728 198.912 97.2027 195.285 98.952ZM210.573 99.912C210.573 104.221 211.555 107.443 213.517 109.576C215.48 111.667 217.933 112.712 220.877 112.712C223.779 112.712 226.211 111.624 228.173 109.448C230.179 107.272 231.181 104.093 231.181 99.912C231.181 95.6027 230.2 92.4027 228.237 90.312C226.275 88.1787 223.821 87.112 220.877 87.112C217.933 87.112 215.48 88.1573 213.517 90.248C211.555 92.296 210.573 95.5173 210.573 99.912ZM209.293 86.6C212.579 83.528 216.44 81.992 220.877 81.992C225.315 81.992 229.176 83.528 232.461 86.6C235.747 89.672 237.389 94.1093 237.389 99.912C237.389 105.715 235.747 110.152 232.461 113.224C229.176 116.296 225.315 117.832 220.877 117.832C216.44 117.832 212.579 116.296 209.293 113.224C206.008 110.152 204.365 105.715 204.365 99.912C204.365 94.1093 206.008 89.672 209.293 86.6ZM242.436 82.568H257.412C265.774 82.568 269.956 85.4907 269.956 91.336C269.956 95.048 268.356 97.5653 265.156 98.888C269.294 100.083 271.364 102.771 271.364 106.952C271.364 110.365 270.19 112.904 267.844 114.568C265.497 116.189 262.361 117 258.436 117H242.436V82.568ZM248.26 97.032H257.028C259.289 97.032 260.996 96.6693 262.148 95.944C263.3 95.176 263.876 93.8533 263.876 91.976C263.876 90.312 263.3 89.1813 262.148 88.584C260.996 87.944 259.225 87.624 256.836 87.624H248.26V97.032ZM248.26 101.832V111.944H257.54C262.702 111.944 265.284 110.259 265.284 106.888C265.284 105.011 264.644 103.709 263.364 102.984C262.126 102.216 260.121 101.832 257.348 101.832H248.26ZM273.897 128.2V123.336H276.265C278.441 123.336 279.999 123.016 280.937 122.376C281.919 121.736 282.772 120.179 283.497 117.704L283.753 117L271.337 82.568H277.801L286.569 109.128L295.081 82.568H301.161L288.873 118.472C287.935 121.16 287.06 123.123 286.249 124.36C285.481 125.64 284.372 126.6 282.921 127.24C281.471 127.88 279.465 128.2 276.905 128.2H273.897ZM329.551 87.624H317.775V117H311.951V87.624H300.175V82.568H329.551V87.624ZM369.587 117V95.88H364.531L349.939 117H342.195L358.835 92.616L343.219 70.6H350.963L364.595 90.248H369.587V70.6H376.115V90.248H381.107L394.739 70.6H402.355L386.803 92.68L403.507 117H395.763L381.299 95.88H376.115V117H369.587ZM436.003 101.704H409.507C409.592 105.203 410.68 107.912 412.771 109.832C414.904 111.752 417.358 112.712 420.131 112.712C424.739 112.712 427.875 110.813 429.539 107.016H435.555C434.744 110.131 432.974 112.712 430.243 114.76C427.512 116.808 424.142 117.832 420.131 117.832C414.84 117.832 410.702 116.147 407.715 112.776C404.728 109.405 403.235 105.096 403.235 99.848C403.235 94.472 404.814 90.1627 407.971 86.92C411.128 83.6347 415.118 81.992 419.939 81.992C425.102 81.992 429.155 83.8907 432.099 87.688C435.043 91.4427 436.344 96.1147 436.003 101.704ZM419.939 86.984C417.166 86.984 414.798 87.7947 412.835 89.416C410.915 91.0373 409.827 93.4693 409.571 96.712H429.859C429.774 94.1093 428.835 91.848 427.043 89.928C425.251 87.9653 422.883 86.984 419.939 86.984ZM469.605 117H463.781V101.96H446.757V117H440.933V82.568H446.757V96.904H463.781V82.568H469.605V117ZM502.665 82.568V117H496.841V104.776H490.761C490.334 104.776 490.014 104.755 489.801 104.712L480.457 117H473.225L483.657 103.112C478.793 101.448 476.361 98.1413 476.361 93.192C476.361 89.6933 477.47 87.048 479.689 85.256C481.95 83.464 485.108 82.568 489.161 82.568H502.665ZM496.841 87.624H489.481C484.702 87.624 482.313 89.608 482.313 93.576C482.313 97.672 484.873 99.72 489.993 99.72H496.841V87.624ZM72.799 187.896H67.999V182.264H72.351C74.9537 182.264 76.8097 181.24 77.919 179.192L78.815 177.528L61.535 140.6H68.575L82.079 170.744L94.495 140.6H101.727L84.639 179.384C81.9937 185.059 78.047 187.896 72.799 187.896ZM99.2705 152.568H114.247C122.609 152.568 126.791 155.491 126.791 161.336C126.791 165.048 125.191 167.565 121.99 168.888C126.129 170.083 128.199 172.771 128.199 176.952C128.199 180.365 127.025 182.904 124.679 184.568C122.332 186.189 119.196 187 115.271 187H99.2705V152.568ZM105.094 167.032H113.862C116.124 167.032 117.83 166.669 118.983 165.944C120.135 165.176 120.711 163.853 120.711 161.976C120.711 160.312 120.135 159.181 118.983 158.584C117.83 157.944 116.06 157.624 113.67 157.624H105.094V167.032ZM105.094 171.832V181.944H114.375C119.537 181.944 122.118 180.259 122.118 176.888C122.118 175.011 121.478 173.709 120.198 172.984C118.961 172.216 116.956 171.832 114.182 171.832H105.094ZM159.98 152.568V187H154.156V157.624H142.572L142.06 165.944C141.634 173.155 140.524 178.467 138.732 181.88C136.94 185.293 134.103 187 130.22 187H129.132V181.944H129.772C133.655 181.944 135.895 176.077 136.492 164.344L137.004 152.568H159.98ZM197.683 171.704H171.187C171.272 175.203 172.36 177.912 174.451 179.832C176.584 181.752 179.038 182.712 181.811 182.712C186.419 182.712 189.555 180.813 191.219 177.016H197.235C196.424 180.131 194.654 182.712 191.923 184.76C189.192 186.808 185.822 187.832 181.811 187.832C176.52 187.832 172.382 186.147 169.395 182.776C166.408 179.405 164.915 175.096 164.915 169.848C164.915 164.472 166.494 160.163 169.651 156.92C172.808 153.635 176.798 151.992 181.619 151.992C186.782 151.992 190.835 153.891 193.779 157.688C196.723 161.443 198.024 166.115 197.683 171.704ZM181.619 156.984C178.846 156.984 176.478 157.795 174.515 159.416C172.595 161.037 171.507 163.469 171.251 166.712H191.539C191.454 164.109 190.515 161.848 188.723 159.928C186.931 157.965 184.563 156.984 181.619 156.984ZM227.957 187H222.133V173.048C218.208 173.987 214.794 174.456 211.893 174.456C208.224 174.456 205.472 173.603 203.637 171.896C201.802 170.147 200.885 167.437 200.885 163.768V152.568H206.709V162.552C206.709 165.027 207.285 166.797 208.437 167.864C209.632 168.888 211.488 169.4 214.005 169.4C216.224 169.4 218.933 169.016 222.133 168.248V152.568H227.957V187ZM265.641 171.704H239.145C239.23 175.203 240.318 177.912 242.409 179.832C244.542 181.752 246.995 182.712 249.769 182.712C254.377 182.712 257.513 180.813 259.177 177.016H265.193C264.382 180.131 262.611 182.712 259.881 184.76C257.15 186.808 253.779 187.832 249.769 187.832C244.478 187.832 240.339 186.147 237.353 182.776C234.366 179.405 232.873 175.096 232.873 169.848C232.873 164.472 234.451 160.163 237.609 156.92C240.766 153.635 244.755 151.992 249.577 151.992C254.739 151.992 258.793 153.891 261.737 157.688C264.681 161.443 265.982 166.115 265.641 171.704ZM249.577 156.984C246.803 156.984 244.435 157.795 242.473 159.416C240.553 161.037 239.465 163.469 239.209 166.712H259.497C259.411 164.109 258.473 161.848 256.681 159.928C254.889 157.965 252.521 156.984 249.577 156.984ZM299.242 187H293.418V171.96H276.394V187H270.57V152.568H276.394V166.904H293.418V152.568H299.242V187ZM319.778 152.568H325.602V158.008C327.906 153.997 331.661 151.992 336.866 151.992C341.005 151.992 344.482 153.613 347.298 156.856C350.157 160.099 351.586 164.451 351.586 169.912C351.586 175.416 350.157 179.789 347.298 183.032C344.482 186.232 341.005 187.832 336.866 187.832C331.661 187.832 327.906 185.827 325.602 181.816V198.2H319.778V152.568ZM328.226 160.248C326.306 162.424 325.346 165.645 325.346 169.912C325.346 174.179 326.306 177.4 328.226 179.576C330.189 181.752 332.578 182.84 335.394 182.84C338.423 182.84 340.813 181.709 342.562 179.448C344.354 177.144 345.25 173.965 345.25 169.912C345.25 165.859 344.354 162.701 342.562 160.44C340.813 158.136 338.423 156.984 335.394 156.984C332.578 156.984 330.189 158.072 328.226 160.248ZM377.914 172.6V170.424C372.069 170.979 367.717 171.789 364.858 172.856C362.042 173.923 360.634 175.565 360.634 177.784C360.634 179.448 361.231 180.771 362.426 181.752C363.621 182.733 365.242 183.224 367.29 183.224C370.362 183.224 372.901 182.392 374.906 180.728C376.911 179.064 377.914 176.355 377.914 172.6ZM366.01 187.832C362.639 187.832 359.823 186.957 357.562 185.208C355.301 183.416 354.17 180.984 354.17 177.912C354.17 175.949 354.682 174.264 355.706 172.856C356.773 171.448 358.394 170.296 360.57 169.4C362.789 168.461 365.199 167.736 367.802 167.224C370.405 166.712 373.626 166.243 377.466 165.816V164.984C377.466 159.395 374.863 156.6 369.658 156.6C367.269 156.6 365.391 157.197 364.026 158.392C362.661 159.587 361.914 161.272 361.786 163.448H355.77C356.026 159.907 357.498 157.091 360.186 155C362.917 152.909 366.053 151.864 369.594 151.864C374.33 151.864 377.807 153.016 380.026 155.32C382.245 157.624 383.333 161.208 383.29 166.072L383.226 174.008C383.183 179.597 383.482 183.928 384.122 187H378.234C377.978 185.336 377.829 183.757 377.786 182.264C375.61 185.976 371.685 187.832 366.01 187.832ZM408.48 168.952C410.485 169.507 412.149 170.488 413.472 171.896C414.795 173.261 415.456 175.032 415.456 177.208C415.456 180.707 414.069 183.352 411.296 185.144C408.523 186.936 405.067 187.832 400.928 187.832C397.045 187.832 393.781 186.893 391.136 185.016C388.491 183.096 386.869 180.259 386.272 176.504H392.16C393.099 180.813 396.149 182.968 401.312 182.968C403.744 182.968 405.664 182.477 407.072 181.496C408.523 180.472 409.248 179.128 409.248 177.464C409.248 173.709 406.752 171.832 401.76 171.832H396.256V167.032H401.44C403.488 167.032 405.067 166.584 406.176 165.688C407.328 164.749 407.904 163.405 407.904 161.656C407.904 160.077 407.285 158.904 406.048 158.136C404.811 157.325 403.189 156.92 401.184 156.92C396.32 156.92 393.547 159.011 392.864 163.192H386.848C387.445 159.523 389.003 156.707 391.52 154.744C394.037 152.781 397.152 151.8 400.864 151.8C404.491 151.8 407.563 152.653 410.08 154.36C412.64 156.067 413.92 158.456 413.92 161.528C413.92 164.728 412.107 167.203 408.48 168.952ZM420.121 152.568H425.945V158.008C428.249 153.997 432.003 151.992 437.209 151.992C441.347 151.992 444.825 153.613 447.641 156.856C450.499 160.099 451.929 164.451 451.929 169.912C451.929 175.416 450.499 179.789 447.641 183.032C444.825 186.232 441.347 187.832 437.209 187.832C432.003 187.832 428.249 185.827 425.945 181.816V198.2H420.121V152.568ZM428.569 160.248C426.649 162.424 425.689 165.645 425.689 169.912C425.689 174.179 426.649 177.4 428.569 179.576C430.531 181.752 432.921 182.84 435.737 182.84C438.766 182.84 441.155 181.709 442.905 179.448C444.697 177.144 445.593 173.965 445.593 169.912C445.593 165.859 444.697 162.701 442.905 160.44C441.155 158.136 438.766 156.984 435.737 156.984C432.921 156.984 430.531 158.072 428.569 160.248ZM478.257 172.6V170.424C472.411 170.979 468.059 171.789 465.201 172.856C462.385 173.923 460.977 175.565 460.977 177.784C460.977 179.448 461.574 180.771 462.769 181.752C463.963 182.733 465.585 183.224 467.633 183.224C470.705 183.224 473.243 182.392 475.249 180.728C477.254 179.064 478.257 176.355 478.257 172.6ZM466.353 187.832C462.982 187.832 460.166 186.957 457.905 185.208C455.643 183.416 454.513 180.984 454.513 177.912C454.513 175.949 455.025 174.264 456.049 172.856C457.115 171.448 458.737 170.296 460.913 169.4C463.131 168.461 465.542 167.736 468.145 167.224C470.747 166.712 473.969 166.243 477.809 165.816V164.984C477.809 159.395 475.206 156.6 470.001 156.6C467.611 156.6 465.734 157.197 464.369 158.392C463.003 159.587 462.257 161.272 462.129 163.448H456.113C456.369 159.907 457.841 157.091 460.529 155C463.259 152.909 466.395 151.864 469.937 151.864C474.673 151.864 478.15 153.016 480.369 155.32C482.587 157.624 483.675 161.208 483.633 166.072L483.569 174.008C483.526 179.597 483.825 183.928 484.465 187H478.577C478.321 185.336 478.171 183.757 478.129 182.264C475.953 185.976 472.027 187.832 466.353 187.832ZM505.878 154.552C510.017 154.552 513.473 155.981 516.246 158.84C519.02 161.656 520.406 165.667 520.406 170.872C520.406 176.205 518.913 180.365 515.926 183.352C512.982 186.339 509.292 187.832 504.854 187.832C500.161 187.832 496.278 186.211 493.206 182.968C490.177 179.725 488.662 175.096 488.662 169.08V165.112C488.748 158.584 490.113 153.549 492.758 150.008C495.446 146.467 500.118 144.035 506.774 142.712L518.102 140.472V145.656L507.094 148.024C502.742 149.005 499.542 150.477 497.494 152.44C495.446 154.403 494.23 157.453 493.846 161.592C494.956 159.288 496.577 157.539 498.71 156.344C500.844 155.149 503.233 154.552 505.878 154.552ZM504.854 182.776C507.713 182.776 509.974 181.752 511.638 179.704C513.345 177.613 514.198 174.712 514.198 171C514.198 167.331 513.345 164.515 511.638 162.552C509.932 160.589 507.692 159.608 504.918 159.608C502.102 159.608 499.734 160.589 497.814 162.552C495.894 164.472 494.934 167.267 494.934 170.936C494.934 174.563 495.852 177.443 497.686 179.576C499.521 181.709 501.91 182.776 504.854 182.776ZM528.673 169.912C528.673 174.221 529.655 177.443 531.617 179.576C533.58 181.667 536.033 182.712 538.977 182.712C541.879 182.712 544.311 181.624 546.273 179.448C548.279 177.272 549.281 174.093 549.281 169.912C549.281 165.603 548.3 162.403 546.337 160.312C544.375 158.179 541.921 157.112 538.977 157.112C536.033 157.112 533.58 158.157 531.617 160.248C529.655 162.296 528.673 165.517 528.673 169.912ZM527.393 156.6C530.679 153.528 534.54 151.992 538.977 151.992C543.415 151.992 547.276 153.528 550.561 156.6C553.847 159.672 555.489 164.109 555.489 169.912C555.489 175.715 553.847 180.152 550.561 183.224C547.276 186.296 543.415 187.832 538.977 187.832C534.54 187.832 530.679 186.296 527.393 183.224C524.108 180.152 522.465 175.715 522.465 169.912C522.465 164.109 524.108 159.672 527.393 156.6ZM584.818 157.624H573.042V187H567.218V157.624H555.442V152.568H584.818V157.624ZM610.627 187L598.787 171.704H594.371V187H588.483V152.568H594.371V166.648H598.659L609.603 152.568H616.515L603.523 168.824L617.859 187H610.627ZM623.579 169.912C623.579 174.221 624.56 177.443 626.523 179.576C628.485 181.667 630.939 182.712 633.883 182.712C636.784 182.712 639.216 181.624 641.179 179.448C643.184 177.272 644.187 174.093 644.187 169.912C644.187 165.603 643.205 162.403 641.243 160.312C639.28 158.179 636.827 157.112 633.883 157.112C630.939 157.112 628.485 158.157 626.523 160.248C624.56 162.296 623.579 165.517 623.579 169.912ZM622.299 156.6C625.584 153.528 629.445 151.992 633.883 151.992C638.32 151.992 642.181 153.528 645.467 156.6C648.752 159.672 650.395 164.109 650.395 169.912C650.395 175.715 648.752 180.152 645.467 183.224C642.181 186.296 638.32 187.832 633.883 187.832C629.445 187.832 625.584 186.296 622.299 183.224C619.013 180.152 617.371 175.715 617.371 169.912C617.371 164.109 619.013 159.672 622.299 156.6ZM676.049 140.6H680.593C679.91 145.763 676.497 148.344 670.353 148.344C667.11 148.344 664.657 147.597 662.993 146.104C661.371 144.611 660.475 142.776 660.305 140.6H664.849C665.19 143.203 667.046 144.504 670.417 144.504C673.83 144.504 675.707 143.203 676.049 140.6ZM679.057 187V161.016L661.265 187H655.441V152.568H661.265V178.552L679.057 152.568H684.881V187H679.057ZM13.144 260.84C13.3573 261.181 13.5493 261.587 13.72 262.056C13.9333 262.525 14.04 263.08 14.04 263.72C14.04 265 13.5707 266.067 12.632 266.92C11.6933 267.773 10.5413 268.2 9.176 268.2C8.19467 268.2 7.384 267.944 6.744 267.432C6.14667 266.92 5.848 266.173 5.848 265.192C5.848 263.784 6.50933 262.568 7.832 261.544C9.15467 260.52 10.904 260.008 13.08 260.008C14.6587 260.008 16.024 260.221 17.176 260.648C18.328 261.075 19.416 261.501 20.44 261.928C21.464 262.397 22.5947 262.632 23.832 262.632C24.984 262.632 25.9227 262.163 26.648 261.224C27.416 260.328 28.1413 258.941 28.824 257.064C29.5493 255.187 30.4453 252.797 31.512 249.896L32.344 250.472C31.064 254.312 29.912 257.533 28.888 260.136C27.864 262.781 26.8187 264.765 25.752 266.088C24.6853 267.411 23.4267 268.072 21.976 268.072C21.08 268.072 20.3333 267.816 19.736 267.304C19.1387 266.835 18.6053 266.259 18.136 265.576C17.6667 264.893 17.1973 264.189 16.728 263.464C16.3013 262.781 15.8107 262.184 15.256 261.672C14.7013 261.16 13.9973 260.883 13.144 260.84ZM24.28 234.664C22.6587 239.229 21.144 243.005 19.736 245.992C18.328 248.979 16.92 251.347 15.512 253.096C14.1467 254.845 12.7387 256.083 11.288 256.808C9.83733 257.533 8.30133 257.896 6.68 257.896C4.888 257.896 3.52267 257.491 2.584 256.68C1.688 255.869 1.19733 254.76 1.112 253.352C1.02667 251.901 1.304 250.195 1.944 248.232L8.152 229.416C8.57867 228.136 8.68533 227.24 8.472 226.728C8.25867 226.216 7.832 225.96 7.192 225.96C6.552 225.96 5.86933 226.323 5.144 227.048C4.46133 227.773 3.71467 229.245 2.904 231.464L1.88 234.344H0.664L2.264 229.672C2.904 227.88 3.672 226.515 4.568 225.576C5.50667 224.637 6.488 223.997 7.512 223.656C8.57867 223.272 9.60267 223.08 10.584 223.08C12.4613 223.08 13.8053 223.507 14.616 224.36C15.4693 225.171 15.896 226.323 15.896 227.816C15.9387 229.267 15.6187 230.952 14.936 232.872L9.112 250.472C8.088 253.544 8.38667 255.08 10.008 255.08C10.904 255.08 11.8853 254.589 12.952 253.608C14.0187 252.584 15.1067 251.155 16.216 249.32C17.368 247.443 18.4987 245.267 19.608 242.792C20.76 240.317 21.848 237.629 22.872 234.728C23.9387 231.827 24.8987 228.776 25.752 225.576L24.28 234.664ZM26.264 251.56C25.9653 252.627 25.8373 253.48 25.88 254.12C25.9227 254.717 26.3067 255.016 27.032 255.016C27.8427 255.016 28.5893 254.611 29.272 253.8C29.9973 252.947 30.7227 251.517 31.448 249.512L32.536 246.504H33.752L32.088 251.304C31.4907 253.011 30.7227 254.355 29.784 255.336C28.888 256.275 27.9067 256.936 26.84 257.32C25.816 257.704 24.792 257.896 23.768 257.896C22.744 257.896 21.8693 257.704 21.144 257.32C20.4187 256.979 19.8853 256.488 19.544 255.848C19.1173 255.08 18.9253 254.141 18.968 253.032C19.0533 251.923 19.3093 250.557 19.736 248.936L26.136 223.976C27.672 223.933 29.1227 223.848 30.488 223.72C31.8533 223.592 33.112 223.379 34.264 223.08L26.264 251.56ZM59.7275 234.664C58.1062 239.229 56.5915 243.005 55.1835 245.992C53.7755 248.979 52.3675 251.347 50.9595 253.096C49.5942 254.845 48.1862 256.083 46.7355 256.808C45.2848 257.533 43.7488 257.896 42.1275 257.896C40.3355 257.896 38.9702 257.491 38.0315 256.68C37.1355 255.869 36.6448 254.76 36.5595 253.352C36.4742 251.901 36.7515 250.195 37.3915 248.232L43.5995 229.416C44.0262 228.136 44.1328 227.24 43.9195 226.728C43.7062 226.216 43.2795 225.96 42.6395 225.96C41.9995 225.96 41.3168 226.323 40.5915 227.048C39.9088 227.773 39.1622 229.245 38.3515 231.464L37.3275 234.344H36.1115L37.7115 229.672C38.3515 227.88 39.1195 226.515 40.0155 225.576C40.9542 224.637 41.9355 223.997 42.9595 223.656C44.0262 223.272 45.0502 223.08 46.0315 223.08C47.9088 223.08 49.2528 223.507 50.0635 224.36C50.9168 225.171 51.3435 226.323 51.3435 227.816C51.3862 229.267 51.0662 230.952 50.3835 232.872L44.5595 250.472C43.5355 253.544 43.8342 255.08 45.4555 255.08C46.3515 255.08 47.3328 254.589 48.3995 253.608C49.4662 252.584 50.5542 251.155 51.6635 249.32C52.8155 247.443 53.9462 245.267 55.0555 242.792C56.2075 240.317 57.2955 237.629 58.3195 234.728C59.3862 231.827 60.3462 228.776 61.1995 225.576L59.7275 234.664ZM61.7115 251.56C61.4128 252.627 61.2848 253.48 61.3275 254.12C61.3702 254.717 61.7542 255.016 62.4795 255.016C63.2902 255.016 64.0368 254.611 64.7195 253.8C65.4448 252.947 66.1702 251.517 66.8955 249.512L67.9835 246.504H69.1995L67.5355 251.304C66.9382 253.011 66.1702 254.355 65.2315 255.336C64.3355 256.275 63.3542 256.936 62.2875 257.32C61.2635 257.704 60.2395 257.896 59.2155 257.896C58.1915 257.896 57.3168 257.704 56.5915 257.32C55.8662 256.979 55.3328 256.488 54.9915 255.848C54.5648 255.08 54.3728 254.141 54.4155 253.032C54.5008 251.923 54.7568 250.557 55.1835 248.936L61.5835 223.976C63.1195 223.933 64.5702 223.848 65.9355 223.72C67.3008 223.592 68.5595 223.379 69.7115 223.08L61.7115 251.56ZM108.618 226.024C107.807 226.024 106.89 226.493 105.866 227.432C104.842 228.371 103.818 229.672 102.794 231.336C101.77 233 100.81 234.877 99.914 236.968C99.018 239.059 98.2927 241.277 97.738 243.624L99.082 236.968C100.405 233.597 101.727 230.909 103.05 228.904C104.373 226.856 105.738 225.384 107.146 224.488C108.554 223.549 110.047 223.08 111.626 223.08C114.015 223.08 115.85 223.891 117.13 225.512C118.453 227.133 119.114 229.523 119.114 232.68C119.114 234.643 118.837 236.755 118.282 239.016C117.77 241.277 116.981 243.517 115.914 245.736C114.847 247.955 113.546 250.003 112.01 251.88C110.474 253.715 108.703 255.187 106.698 256.296C104.735 257.363 102.538 257.896 100.106 257.896C98.7833 257.896 97.5673 257.597 96.458 257C95.3913 256.403 94.6233 255.571 94.154 254.504L94.602 253.416C95.114 254.397 95.6687 255.101 96.266 255.528C96.906 255.955 97.6313 256.168 98.442 256.168C99.8073 256.168 101.109 255.656 102.346 254.632C103.626 253.565 104.799 252.157 105.866 250.408C106.975 248.616 107.935 246.632 108.746 244.456C109.557 242.28 110.175 240.061 110.602 237.8C111.071 235.539 111.306 233.427 111.306 231.464C111.306 229.416 111.071 228.008 110.602 227.24C110.133 226.429 109.471 226.024 108.618 226.024ZM80.97 255.08C81.738 255.08 82.634 254.611 83.658 253.672C84.682 252.733 85.7273 251.389 86.794 249.64C87.9033 247.891 88.9487 245.779 89.93 243.304C90.954 240.829 91.8287 238.035 92.554 234.92L91.402 241.832C90.0367 245.587 88.6713 248.659 87.306 251.048C85.9407 253.395 84.49 255.123 82.954 256.232C81.418 257.341 79.6687 257.896 77.706 257.896C76.3407 257.896 75.1033 257.576 73.994 256.936C72.8847 256.253 72.01 255.251 71.37 253.928C70.73 252.563 70.41 250.835 70.41 248.744C70.41 246.824 70.6873 244.733 71.242 242.472C71.8393 240.168 72.6713 237.885 73.738 235.624C74.8473 233.363 76.1913 231.272 77.77 229.352C79.3913 227.432 81.2473 225.917 83.338 224.808C85.4287 223.656 87.7753 223.08 90.378 223.08C91.786 223.08 92.8953 223.421 93.706 224.104C94.5593 224.787 95.114 225.725 95.37 226.92L94.858 228.2C94.4313 226.877 93.9193 225.939 93.322 225.384C92.7673 224.829 91.9993 224.552 91.018 224.552C89.8233 224.552 88.6073 225.085 87.37 226.152C86.1753 227.176 85.0233 228.584 83.914 230.376C82.8473 232.168 81.8873 234.195 81.034 236.456C80.1807 238.675 79.498 240.979 78.986 243.368C78.5167 245.757 78.282 248.061 78.282 250.28C78.282 251.901 78.4953 253.117 78.922 253.928C79.3487 254.696 80.0313 255.08 80.97 255.08ZM111.882 208.04C111.157 208.04 110.495 208.168 109.898 208.424C109.343 208.68 108.831 209.021 108.362 209.448C107.765 210.003 107.21 210.835 106.698 211.944C106.229 213.053 105.781 214.355 105.354 215.848C104.927 217.299 104.501 218.899 104.074 220.648L91.338 268.136C89.802 268.179 88.3727 268.264 87.05 268.392C85.7273 268.52 84.4473 268.733 83.21 269.032L95.178 224.296C96.1167 220.755 97.162 217.832 98.314 215.528C99.466 213.224 100.831 211.389 102.41 210.024C103.562 209.043 104.885 208.296 106.378 207.784C107.871 207.229 109.45 206.952 111.114 206.952C113.546 206.952 115.423 207.485 116.746 208.552C118.069 209.576 118.73 210.899 118.73 212.52C118.73 213.373 118.495 214.205 118.026 215.016C117.599 215.827 116.981 216.488 116.17 217C115.402 217.512 114.485 217.768 113.418 217.768C112.309 217.768 111.413 217.512 110.73 217C110.09 216.445 109.791 215.677 109.834 214.696C109.834 213.416 110.239 212.285 111.05 211.304C111.861 210.28 112.949 209.555 114.314 209.128C114.186 208.829 113.909 208.573 113.482 208.36C113.055 208.147 112.522 208.04 111.882 208.04ZM143.031 226.024C142.093 226.024 141.047 226.643 139.896 227.88C138.786 229.117 137.656 230.824 136.503 233C135.351 235.133 134.263 237.544 133.239 240.232C132.258 242.92 131.405 245.736 130.679 248.68L131.895 242.024C133.389 237.501 134.882 233.853 136.375 231.08C137.869 228.307 139.405 226.28 140.983 225C142.562 223.72 144.247 223.08 146.039 223.08C148.429 223.08 150.264 223.891 151.543 225.512C152.866 227.133 153.528 229.523 153.528 232.68C153.528 234.643 153.25 236.755 152.695 239.016C152.141 241.277 151.33 243.517 150.264 245.736C149.24 247.955 147.96 250.003 146.424 251.88C144.887 253.715 143.117 255.187 141.111 256.296C139.149 257.363 136.951 257.896 134.519 257.896C133.154 257.896 131.938 257.597 130.871 257C129.805 256.403 129.015 255.571 128.503 254.504L129.015 253.416C129.527 254.397 130.082 255.101 130.679 255.528C131.277 255.955 131.981 256.168 132.791 256.168C134.114 256.168 135.394 255.656 136.632 254.632C137.912 253.565 139.064 252.157 140.087 250.408C141.154 248.616 142.093 246.632 142.903 244.456C143.714 242.28 144.333 240.061 144.76 237.8C145.229 235.539 145.464 233.427 145.464 231.464C145.464 229.416 145.25 228.008 144.823 227.24C144.397 226.429 143.8 226.024 143.031 226.024ZM132.599 214.696C134.093 214.568 135.522 214.397 136.887 214.184C138.295 213.928 139.618 213.587 140.855 213.16L126.967 262.12C126.37 264.168 126.541 265.533 127.479 266.216C128.418 266.899 129.933 267.24 132.023 267.24L131.639 268.584C130.658 268.541 129.293 268.477 127.543 268.392C125.794 268.349 123.959 268.328 122.039 268.328C120.461 268.328 118.861 268.349 117.239 268.392C115.618 268.477 114.423 268.541 113.655 268.584L114.039 267.24C115.575 267.24 116.685 266.941 117.367 266.344C118.05 265.789 118.605 264.765 119.031 263.272L132.599 214.696ZM119.863 234.408C121.485 232.787 122.978 231.165 124.343 229.544C125.751 227.88 127.117 225.939 128.439 223.72C129.762 221.459 131.085 218.621 132.407 215.208L132.599 216.232C131.703 219.176 130.637 221.779 129.399 224.04C128.162 226.259 126.797 228.264 125.303 230.056C123.853 231.848 122.274 233.576 120.567 235.24L119.863 234.408ZM174.023 224.36C172.914 224.36 171.783 224.936 170.631 226.088C169.479 227.197 168.391 228.733 167.367 230.696C166.343 232.616 165.404 234.771 164.551 237.16C163.74 239.549 163.1 242.024 162.631 244.584C162.162 247.101 161.927 249.512 161.927 251.816C161.927 253.523 162.14 254.76 162.567 255.528C163.036 256.253 163.719 256.616 164.615 256.616C165.682 256.616 166.791 256.061 167.943 254.952C169.095 253.843 170.183 252.349 171.207 250.472C172.274 248.552 173.212 246.419 174.023 244.072C174.834 241.683 175.474 239.208 175.943 236.648C176.412 234.088 176.647 231.592 176.647 229.16C176.647 227.368 176.412 226.131 175.943 225.448C175.516 224.723 174.876 224.36 174.023 224.36ZM154.375 247.528C154.375 245.608 154.631 243.539 155.143 241.32C155.698 239.101 156.508 236.925 157.575 234.792C158.642 232.616 159.964 230.653 161.543 228.904C163.164 227.112 165.042 225.704 167.175 224.68C169.308 223.613 171.719 223.08 174.407 223.08C177.479 223.08 179.868 223.955 181.575 225.704C183.324 227.411 184.199 229.992 184.199 233.448C184.199 235.368 183.922 237.437 183.367 239.656C182.855 241.875 182.066 244.072 180.999 246.248C179.932 248.381 178.588 250.344 176.967 252.136C175.388 253.885 173.532 255.293 171.399 256.36C169.266 257.384 166.855 257.896 164.167 257.896C161.095 257.896 158.684 257.021 156.935 255.272C155.228 253.523 154.375 250.941 154.375 247.528ZM197.743 256.616C198.895 256.616 199.898 256.125 200.751 255.144C201.604 254.163 202.266 252.947 202.735 251.496C203.247 250.045 203.503 248.595 203.503 247.144C203.503 245.309 203.098 243.901 202.287 242.92C201.519 241.896 200.516 241.363 199.279 241.32L198.895 240.936C200.815 240.637 202.692 240.637 204.527 240.936C206.404 241.235 207.94 241.875 209.135 242.856C210.33 243.795 210.927 245.139 210.927 246.888C210.927 248.168 210.543 249.469 209.775 250.792C209.05 252.072 208.004 253.267 206.639 254.376C205.274 255.443 203.652 256.296 201.775 256.936C199.898 257.576 197.85 257.896 195.631 257.896C193.242 257.896 191.236 257.469 189.615 256.616C188.036 255.763 186.842 254.547 186.031 252.968C185.263 251.389 184.879 249.533 184.879 247.4C184.879 245.181 185.242 242.941 185.967 240.68C186.735 238.376 187.802 236.179 189.167 234.088C190.532 231.997 192.154 230.141 194.031 228.52C195.908 226.856 197.956 225.533 200.175 224.552C202.394 223.571 204.762 223.08 207.279 223.08C209.498 223.08 211.311 223.528 212.719 224.424C214.127 225.277 214.831 226.685 214.831 228.648C214.831 230.568 214.17 232.339 212.847 233.96C211.524 235.581 209.754 237.011 207.535 238.248C205.359 239.485 202.948 240.467 200.303 241.192C197.7 241.875 195.076 242.259 192.431 242.344L192.687 241.448C194.65 241.277 196.57 240.829 198.447 240.104C200.324 239.336 202.01 238.355 203.503 237.16C205.039 235.923 206.234 234.515 207.087 232.936C207.983 231.315 208.431 229.544 208.431 227.624C208.431 226.429 208.218 225.576 207.791 225.064C207.364 224.552 206.767 224.296 205.999 224.296C204.804 224.296 203.46 224.915 201.967 226.152C200.516 227.389 199.13 229.117 197.807 231.336C196.484 233.512 195.396 236.008 194.543 238.824C193.69 241.597 193.263 244.541 193.263 247.656C193.263 250.472 193.647 252.669 194.415 254.248C195.226 255.827 196.335 256.616 197.743 256.616ZM251.195 251.56C250.896 252.627 250.768 253.48 250.811 254.12C250.854 254.717 251.238 255.016 251.963 255.016C252.816 255.016 253.584 254.611 254.267 253.8C254.992 252.947 255.696 251.517 256.379 249.512L257.467 246.504H258.683L257.019 251.304C256.422 253.011 255.654 254.355 254.715 255.336C253.819 256.275 252.859 256.936 251.835 257.32C250.811 257.704 249.787 257.896 248.763 257.896C247.696 257.896 246.736 257.725 245.883 257.384C245.072 257.043 244.475 256.531 244.091 255.848C243.707 255.165 243.536 254.269 243.579 253.16C243.622 252.008 243.856 250.6 244.283 248.936L251.067 223.976C252.603 223.933 254.054 223.848 255.419 223.72C256.784 223.592 258.043 223.379 259.195 223.08L251.195 251.56ZM233.723 238.568C236.027 238.568 237.84 239.187 239.163 240.424C240.528 241.661 241.211 243.325 241.211 245.416C241.211 247.464 240.592 249.448 239.355 251.368C238.118 253.288 236.347 254.867 234.043 256.104C231.782 257.299 228.987 257.896 225.659 257.896C223.91 257.896 222.31 257.64 220.859 257.128C219.408 256.659 218.256 255.848 217.403 254.696C216.55 253.544 216.102 252.029 216.059 250.152C216.016 248.232 216.528 245.821 217.595 242.92L222.459 229.416C222.715 228.776 222.864 228.2 222.907 227.688C222.95 227.176 222.864 226.771 222.651 226.472C222.438 226.131 222.075 225.96 221.563 225.96C220.88 225.96 220.176 226.365 219.451 227.176C218.768 227.987 218.043 229.416 217.275 231.464L216.251 234.344H215.035L216.635 229.672C217.232 227.923 217.979 226.579 218.875 225.64C219.814 224.701 220.816 224.04 221.883 223.656C222.95 223.272 223.974 223.08 224.955 223.08C227.472 223.08 229.051 223.912 229.691 225.576C230.374 227.197 230.118 229.629 228.923 232.872L224.507 244.776C223.355 247.848 222.758 250.259 222.715 252.008C222.672 253.715 222.971 254.931 223.611 255.656C224.251 256.381 225.04 256.744 225.979 256.744C227.216 256.744 228.432 256.275 229.627 255.336C230.822 254.355 231.803 253.032 232.571 251.368C233.382 249.704 233.787 247.827 233.787 245.736C233.787 244.243 233.488 243.091 232.891 242.28C232.336 241.427 231.419 241 230.139 241C229.115 241 228.07 241.299 227.003 241.896C225.936 242.451 225.104 243.304 224.507 244.456L224.315 243.56C225.467 241.811 226.896 240.552 228.603 239.784C230.352 238.973 232.059 238.568 233.723 238.568ZM281.786 251.752C281.956 252.861 282.212 253.629 282.554 254.056C282.938 254.483 283.407 254.696 283.962 254.696C284.559 254.696 285.178 254.355 285.818 253.672C286.458 252.947 287.183 251.411 287.994 249.064L288.826 246.696H290.042L288.442 251.368C287.844 253.16 287.076 254.525 286.138 255.464C285.242 256.403 284.282 257.043 283.258 257.384C282.276 257.725 281.274 257.896 280.25 257.896C278.586 257.896 277.156 257.469 275.962 256.616C274.767 255.72 274.042 254.099 273.786 251.752L271.226 229.224C271.055 228.115 270.778 227.389 270.394 227.048C270.01 226.664 269.54 226.472 268.986 226.472C268.602 226.472 268.196 226.6 267.77 226.856C267.343 227.112 266.916 227.645 266.49 228.456C266.063 229.224 265.572 230.376 265.018 231.912L264.186 234.28H262.97L264.57 229.608C265.167 227.816 265.914 226.451 266.81 225.512C267.706 224.573 268.666 223.933 269.69 223.592C270.756 223.251 271.802 223.08 272.826 223.08C274.66 223.08 276.111 223.528 277.178 224.424C278.287 225.32 278.991 227.048 279.29 229.608L281.786 251.752ZM285.626 227.368C284.474 228.563 283.471 229.928 282.618 231.464C281.764 233 281.018 234.536 280.378 236.072C279.78 237.608 279.268 239.016 278.842 240.296C278.842 240.296 278.628 240.296 278.202 240.296C277.775 240.253 277.562 240.232 277.562 240.232C277.775 239.592 278.052 238.76 278.394 237.736C278.735 236.712 279.162 235.603 279.674 234.408C280.228 233.213 280.89 231.976 281.658 230.696C282.426 229.373 283.279 228.136 284.218 226.984C285.412 225.491 286.564 224.467 287.674 223.912C288.783 223.357 289.892 223.08 291.002 223.08C292.196 223.08 293.178 223.4 293.946 224.04C294.714 224.68 295.098 225.555 295.098 226.664C295.098 227.816 294.692 228.797 293.882 229.608C293.114 230.419 292.068 230.824 290.746 230.824C289.679 230.824 288.676 230.547 287.738 229.992C286.799 229.395 286.095 228.52 285.626 227.368ZM266.234 253.608C267.983 251.773 269.476 249.661 270.714 247.272C271.994 244.84 272.975 242.643 273.658 240.68C273.658 240.68 273.85 240.723 274.234 240.808C274.618 240.851 274.81 240.872 274.81 240.872C274.426 242.024 273.914 243.347 273.274 244.84C272.676 246.291 271.93 247.805 271.034 249.384C270.138 250.963 269.028 252.477 267.706 253.928C266.468 255.336 265.274 256.36 264.122 257C263.012 257.597 261.924 257.896 260.858 257.896C259.578 257.896 258.575 257.597 257.85 257C257.124 256.36 256.762 255.507 256.762 254.44C256.762 253.203 257.188 252.179 258.042 251.368C258.895 250.557 259.919 250.152 261.114 250.152C262.394 250.152 263.439 250.493 264.25 251.176C265.06 251.816 265.722 252.627 266.234 253.608ZM315.682 257H307.81L315.554 229.416C315.725 228.819 315.853 228.264 315.938 227.752C316.024 227.24 315.981 226.813 315.81 226.472C315.682 226.131 315.32 225.96 314.722 225.96C313.912 225.96 313.165 226.365 312.482 227.176C311.842 227.944 311.138 229.373 310.37 231.464L309.282 234.472H308.066L309.73 229.672C310.626 227.155 311.778 225.427 313.186 224.488C314.594 223.549 316.152 223.08 317.858 223.08C319.266 223.08 320.333 223.357 321.058 223.912C321.826 224.467 322.317 225.192 322.53 226.088C322.744 226.941 322.786 227.901 322.658 228.968C322.53 229.992 322.338 231.016 322.082 232.04L315.682 257ZM318.05 245.352C319.629 240.957 321.144 237.331 322.594 234.472C324.045 231.613 325.453 229.352 326.818 227.688C328.184 225.981 329.592 224.787 331.042 224.104C332.493 223.421 334.008 223.08 335.586 223.08C337.677 223.08 339.128 223.549 339.938 224.488C340.792 225.384 341.197 226.579 341.154 228.072C341.154 229.523 340.877 231.08 340.322 232.744L334.05 251.56C333.666 252.712 333.56 253.587 333.73 254.184C333.901 254.739 334.328 255.016 335.01 255.016C335.65 255.016 336.312 254.653 336.994 253.928C337.72 253.203 338.488 251.731 339.298 249.512L340.322 246.632H341.538L339.938 251.304C339.341 253.096 338.573 254.461 337.634 255.4C336.738 256.339 335.757 256.979 334.69 257.32C333.666 257.704 332.642 257.896 331.618 257.896C330.509 257.896 329.549 257.704 328.738 257.32C327.97 256.979 327.373 256.488 326.946 255.848C326.392 255.037 326.157 253.992 326.242 252.712C326.328 251.432 326.669 249.896 327.266 248.104L333.09 230.504C333.304 229.821 333.474 229.139 333.602 228.456C333.73 227.731 333.709 227.133 333.538 226.664C333.368 226.152 332.92 225.896 332.194 225.896C331.298 225.896 330.317 226.408 329.25 227.432C328.184 228.413 327.074 229.8 325.922 231.592C324.77 233.384 323.618 235.475 322.466 237.864C321.314 240.253 320.205 242.856 319.138 245.672C318.114 248.445 317.197 251.325 316.386 254.312L318.05 245.352ZM366.352 226.024C365.413 226.024 364.368 226.643 363.216 227.88C362.106 229.117 360.976 230.824 359.824 233C358.672 235.133 357.584 237.544 356.56 240.232C355.578 242.92 354.725 245.736 354 248.68L355.216 242.024C356.709 237.501 358.202 233.853 359.696 231.08C361.189 228.307 362.725 226.28 364.304 225C365.882 223.72 367.568 223.08 369.36 223.08C371.749 223.08 373.584 223.891 374.864 225.512C376.186 227.133 376.848 229.523 376.848 232.68C376.848 234.643 376.57 236.755 376.016 239.016C375.461 241.277 374.65 243.517 373.584 245.736C372.56 247.955 371.28 250.003 369.744 251.88C368.208 253.715 366.437 255.187 364.432 256.296C362.469 257.363 360.272 257.896 357.84 257.896C356.474 257.896 355.258 257.597 354.192 257C353.125 256.403 352.336 255.571 351.824 254.504L352.336 253.416C352.848 254.397 353.402 255.101 354 255.528C354.597 255.955 355.301 256.168 356.112 256.168C357.434 256.168 358.714 255.656 359.952 254.632C361.232 253.565 362.384 252.157 363.408 250.408C364.474 248.616 365.413 246.632 366.224 244.456C367.034 242.28 367.653 240.061 368.08 237.8C368.549 235.539 368.784 233.427 368.784 231.464C368.784 229.416 368.57 228.008 368.144 227.24C367.717 226.429 367.12 226.024 366.352 226.024ZM355.92 214.696C357.413 214.568 358.842 214.397 360.208 214.184C361.616 213.928 362.938 213.587 364.176 213.16L350.288 262.12C349.69 264.168 349.861 265.533 350.8 266.216C351.738 266.899 353.253 267.24 355.344 267.24L354.96 268.584C353.978 268.541 352.613 268.477 350.864 268.392C349.114 268.349 347.28 268.328 345.36 268.328C343.781 268.328 342.181 268.349 340.56 268.392C338.938 268.477 337.744 268.541 336.976 268.584L337.36 267.24C338.896 267.24 340.005 266.941 340.688 266.344C341.37 265.789 341.925 264.765 342.352 263.272L355.92 214.696ZM343.184 234.408C344.805 232.787 346.298 231.165 347.664 229.544C349.072 227.88 350.437 225.939 351.76 223.72C353.082 221.459 354.405 218.621 355.728 215.208L355.92 216.232C355.024 219.176 353.957 221.779 352.72 224.04C351.482 226.259 350.117 228.264 348.624 230.056C347.173 231.848 345.594 233.576 343.888 235.24L343.184 234.408ZM397.343 224.36C396.234 224.36 395.103 224.936 393.951 226.088C392.799 227.197 391.711 228.733 390.687 230.696C389.663 232.616 388.724 234.771 387.871 237.16C387.06 239.549 386.42 242.024 385.951 244.584C385.482 247.101 385.247 249.512 385.247 251.816C385.247 253.523 385.46 254.76 385.887 255.528C386.356 256.253 387.039 256.616 387.935 256.616C389.002 256.616 390.111 256.061 391.263 254.952C392.415 253.843 393.503 252.349 394.527 250.472C395.594 248.552 396.532 246.419 397.343 244.072C398.154 241.683 398.794 239.208 399.263 236.648C399.732 234.088 399.967 231.592 399.967 229.16C399.967 227.368 399.732 226.131 399.263 225.448C398.836 224.723 398.196 224.36 397.343 224.36ZM377.695 247.528C377.695 245.608 377.951 243.539 378.463 241.32C379.018 239.101 379.828 236.925 380.895 234.792C381.962 232.616 383.284 230.653 384.863 228.904C386.484 227.112 388.362 225.704 390.495 224.68C392.628 223.613 395.039 223.08 397.727 223.08C400.799 223.08 403.188 223.955 404.895 225.704C406.644 227.411 407.519 229.992 407.519 233.448C407.519 235.368 407.242 237.437 406.687 239.656C406.175 241.875 405.386 244.072 404.319 246.248C403.252 248.381 401.908 250.344 400.287 252.136C398.708 253.885 396.852 255.293 394.719 256.36C392.586 257.384 390.175 257.896 387.487 257.896C384.415 257.896 382.004 257.021 380.255 255.272C378.548 253.523 377.695 250.941 377.695 247.528ZM430.215 230.056C430.215 226.088 429.703 222.717 428.679 219.944C427.698 217.128 426.311 214.781 424.519 212.904C422.727 210.984 420.615 209.363 418.183 208.04L418.951 206.952C422.748 208.232 426.098 210.024 428.999 212.328C431.9 214.632 434.162 217.427 435.783 220.712C437.447 223.997 438.279 227.731 438.279 231.912C438.279 234.216 438.002 236.584 437.447 239.016C436.892 241.448 436.06 243.795 434.951 246.056C433.884 248.275 432.54 250.28 430.919 252.072C429.34 253.864 427.484 255.293 425.351 256.36C423.26 257.384 420.892 257.896 418.247 257.896C416.37 257.896 414.684 257.555 413.191 256.872C411.74 256.147 410.588 255.016 409.735 253.48C408.882 251.944 408.455 249.939 408.455 247.464C408.455 245.587 408.711 243.539 409.223 241.32C409.778 239.101 410.567 236.925 411.591 234.792C412.658 232.659 413.938 230.717 415.431 228.968C416.924 227.219 418.631 225.832 420.551 224.808C422.514 223.741 424.668 223.208 427.015 223.208C428.295 223.208 429.276 223.421 429.959 223.848C430.642 224.232 431.282 224.744 431.879 225.384L431.431 226.152C431.004 225.597 430.45 225.192 429.767 224.936C429.084 224.637 428.295 224.488 427.399 224.488C426.162 224.488 424.988 225.064 423.879 226.216C422.77 227.325 421.746 228.861 420.807 230.824C419.911 232.744 419.143 234.899 418.503 237.288C417.863 239.635 417.372 242.067 417.031 244.584C416.69 247.101 416.519 249.469 416.519 251.688C416.519 253.523 416.732 254.803 417.159 255.528C417.628 256.253 418.311 256.616 419.207 256.616C420.402 256.616 421.532 256.083 422.599 255.016C423.708 253.907 424.732 252.413 425.671 250.536C426.61 248.659 427.399 246.568 428.039 244.264C428.722 241.96 429.255 239.592 429.639 237.16C430.023 234.685 430.215 232.317 430.215 230.056ZM457.329 253.544L451.377 260.264L446.257 229.544C446.086 228.307 445.873 227.453 445.617 226.984C445.361 226.515 444.998 226.28 444.529 226.28C444.059 226.28 443.569 226.621 443.057 227.304C442.587 227.944 441.969 229.331 441.201 231.464L440.177 234.28H438.961L440.561 229.608C441.457 227.005 442.566 225.277 443.889 224.424C445.254 223.528 446.726 223.08 448.305 223.08C449.883 223.08 451.142 223.549 452.081 224.488C453.062 225.384 453.723 227.112 454.065 229.672L457.329 253.544ZM442.481 265.896C444.401 264.957 446.406 263.635 448.497 261.928C450.63 260.264 452.827 258.003 455.089 255.144C457.478 252.072 459.611 248.744 461.489 245.16C463.409 241.533 464.795 237.992 465.649 234.536C464.71 234.024 463.793 233.405 462.897 232.68C462.043 231.912 461.339 231.059 460.785 230.12C460.273 229.139 460.017 228.093 460.017 226.984C460.102 225.747 460.486 224.787 461.169 224.104C461.894 223.421 462.833 223.08 463.985 223.08C465.35 223.08 466.353 223.571 466.993 224.552C467.633 225.491 467.953 226.856 467.953 228.648C467.953 230.739 467.59 233 466.865 235.432C466.182 237.864 465.243 240.36 464.049 242.92C462.854 245.437 461.489 247.891 459.953 250.28C458.459 252.627 456.923 254.803 455.345 256.808C454.193 258.173 452.87 259.56 451.377 260.968C449.926 262.376 448.305 263.677 446.513 264.872C444.763 266.109 442.886 267.112 440.881 267.88C439.857 268.307 438.939 268.605 438.129 268.776C437.318 268.947 436.635 269.032 436.081 269.032C434.886 269.032 433.905 268.733 433.137 268.136C432.369 267.581 431.985 266.792 431.985 265.768C431.985 264.701 432.39 263.827 433.201 263.144C433.969 262.504 434.95 262.184 436.145 262.184C437.339 262.184 438.449 262.525 439.473 263.208C440.539 263.891 441.542 264.787 442.481 265.896ZM492.748 252.392C492.577 253.331 492.556 254.013 492.684 254.44C492.854 254.824 493.238 255.016 493.836 255.016C494.476 255.016 495.137 254.653 495.82 253.928C496.545 253.16 497.27 251.688 497.996 249.512L499.02 246.632H500.236L498.7 251.304C498.102 253.011 497.334 254.355 496.396 255.336C495.5 256.275 494.497 256.936 493.388 257.32C492.278 257.704 491.169 257.896 490.06 257.896C488.225 257.896 486.838 257.341 485.9 256.232C485.004 255.08 484.812 253.309 485.324 250.92L486.156 247.08C486.668 244.691 486.476 242.963 485.58 241.896C484.726 240.829 482.806 240.168 479.82 239.912V239.656C481.612 239.528 483.404 239.549 485.196 239.72C486.988 239.848 488.566 240.211 489.932 240.808C491.34 241.405 492.385 242.301 493.068 243.496C493.75 244.691 493.9 246.291 493.516 248.296L492.748 252.392ZM496.588 224.36C496.076 224.36 495.606 224.445 495.18 224.616C494.796 224.787 494.412 225.021 494.028 225.32C493.217 225.96 492.556 226.877 492.044 228.072C491.532 229.267 491.02 230.547 490.508 231.912C489.996 233.277 489.356 234.579 488.588 235.816C487.82 237.011 486.796 237.992 485.516 238.76C484.278 239.528 482.636 239.891 480.588 239.848L479.948 239.912L480.076 239.208C482.081 239.08 483.681 238.632 484.876 237.864C486.07 237.053 487.009 236.051 487.692 234.856C488.374 233.661 488.95 232.403 489.42 231.08C489.932 229.757 490.444 228.52 490.956 227.368C491.468 226.216 492.172 225.277 493.068 224.552C493.793 223.955 494.476 223.571 495.116 223.4C495.798 223.187 496.417 223.08 496.972 223.08C498.892 223.08 500.257 223.592 501.068 224.616C501.878 225.64 502.262 226.856 502.22 228.264C502.177 229.117 501.964 229.928 501.58 230.696C501.196 231.464 500.641 232.104 499.916 232.616C499.233 233.085 498.401 233.32 497.42 233.32C496.182 233.32 495.265 232.979 494.668 232.296C494.07 231.571 493.793 230.76 493.836 229.864C493.836 228.84 494.177 227.88 494.86 226.984C495.585 226.045 496.417 225.277 497.356 224.68C497.228 224.595 497.1 224.531 496.972 224.488C496.886 224.403 496.758 224.36 496.588 224.36ZM475.596 257H467.788L476.044 229.416C476.257 228.904 476.406 228.392 476.492 227.88C476.577 227.325 476.556 226.877 476.428 226.536C476.3 226.152 475.937 225.96 475.34 225.96C474.529 225.96 473.761 226.365 473.036 227.176C472.353 227.987 471.628 229.416 470.86 231.464L469.708 234.472H468.492L470.284 229.672C470.881 228.008 471.606 226.707 472.46 225.768C473.356 224.787 474.316 224.104 475.34 223.72C476.406 223.293 477.473 223.08 478.54 223.08C479.99 223.08 481.057 223.357 481.74 223.912C482.465 224.467 482.913 225.192 483.084 226.088C483.297 226.984 483.318 227.965 483.148 229.032C483.02 230.056 482.828 231.059 482.572 232.04L475.596 257ZM511.18 257H503.308L510.988 229.416C511.159 228.904 511.265 228.392 511.308 227.88C511.393 227.368 511.351 226.92 511.18 226.536C511.052 226.152 510.732 225.96 510.22 225.96C509.409 225.96 508.663 226.387 507.98 227.24C507.297 228.051 506.593 229.459 505.868 231.464L504.78 234.472H503.564L505.228 229.672C505.825 227.965 506.572 226.643 507.468 225.704C508.407 224.723 509.388 224.04 510.412 223.656C511.479 223.272 512.524 223.08 513.548 223.08C514.956 223.08 516.001 223.357 516.684 223.912C517.367 224.467 517.815 225.192 518.028 226.088C518.241 226.984 518.263 227.965 518.092 229.032C517.964 230.056 517.772 231.059 517.516 232.04L511.18 257ZM527.5 230.504C527.756 229.736 527.927 229.032 528.012 228.392C528.14 227.709 528.119 227.176 527.948 226.792C527.777 226.365 527.372 226.152 526.732 226.152C525.708 226.152 524.577 226.792 523.34 228.072C522.145 229.352 520.908 231.144 519.628 233.448C518.348 235.752 517.089 238.461 515.852 241.576C514.657 244.648 513.527 248.019 512.46 251.688L513.42 245.352C515.297 239.891 517.068 235.539 518.732 232.296C520.439 229.011 522.231 226.664 524.108 225.256C525.985 223.805 528.097 223.08 530.444 223.08C531.809 223.08 532.833 223.357 533.516 223.912C534.241 224.467 534.711 225.213 534.924 226.152C535.18 227.048 535.223 228.072 535.052 229.224C534.924 230.376 534.689 231.549 534.348 232.744L527.628 257H519.628L527.5 230.504ZM544.204 230.504C544.588 229.309 544.78 228.285 544.78 227.432C544.78 226.579 544.439 226.152 543.756 226.152C542.732 226.152 541.644 226.728 540.492 227.88C539.34 229.032 538.103 230.76 536.78 233.064C535.5 235.325 534.199 238.099 532.876 241.384C531.553 244.669 530.209 248.467 528.844 252.776L529.484 247.72C531.02 242.984 532.492 239.037 533.9 235.88C535.308 232.723 536.716 230.205 538.124 228.328C539.532 226.451 540.983 225.107 542.476 224.296C544.012 223.485 545.633 223.08 547.34 223.08C549.175 223.08 550.476 223.549 551.244 224.488C552.012 225.427 552.375 226.621 552.332 228.072C552.289 229.523 551.991 231.08 551.436 232.744L545.164 251.56C544.737 252.84 544.631 253.736 544.844 254.248C545.057 254.76 545.484 255.016 546.124 255.016C546.764 255.016 547.425 254.653 548.108 253.928C548.833 253.203 549.601 251.731 550.412 249.512L551.436 246.632H552.652L551.052 251.304C550.455 253.096 549.687 254.461 548.748 255.4C547.852 256.339 546.871 256.979 545.804 257.32C544.78 257.704 543.777 257.896 542.796 257.896C541.559 257.896 540.556 257.704 539.788 257.32C539.02 256.979 538.423 256.467 537.996 255.784C537.484 254.931 537.271 253.864 537.356 252.584C537.484 251.304 537.825 249.811 538.38 248.104L544.204 230.504ZM574.018 224.36C572.909 224.36 571.778 224.936 570.626 226.088C569.474 227.197 568.386 228.733 567.362 230.696C566.338 232.616 565.399 234.771 564.546 237.16C563.735 239.549 563.095 242.024 562.626 244.584C562.157 247.101 561.922 249.512 561.922 251.816C561.922 253.523 562.135 254.76 562.562 255.528C563.031 256.253 563.714 256.616 564.61 256.616C565.677 256.616 566.786 256.061 567.938 254.952C569.09 253.843 570.178 252.349 571.202 250.472C572.269 248.552 573.207 246.419 574.018 244.072C574.829 241.683 575.469 239.208 575.938 236.648C576.407 234.088 576.642 231.592 576.642 229.16C576.642 227.368 576.407 226.131 575.938 225.448C575.511 224.723 574.871 224.36 574.018 224.36ZM554.37 247.528C554.37 245.608 554.626 243.539 555.138 241.32C555.693 239.101 556.503 236.925 557.57 234.792C558.637 232.616 559.959 230.653 561.538 228.904C563.159 227.112 565.037 225.704 567.17 224.68C569.303 223.613 571.714 223.08 574.402 223.08C577.474 223.08 579.863 223.955 581.57 225.704C583.319 227.411 584.194 229.992 584.194 233.448C584.194 235.368 583.917 237.437 583.362 239.656C582.85 241.875 582.061 244.072 580.994 246.248C579.927 248.381 578.583 250.344 576.962 252.136C575.383 253.885 573.527 255.293 571.394 256.36C569.261 257.384 566.85 257.896 564.162 257.896C561.09 257.896 558.679 257.021 556.93 255.272C555.223 253.523 554.37 250.941 554.37 247.528ZM597.738 256.616C598.89 256.616 599.893 256.125 600.746 255.144C601.599 254.163 602.261 252.947 602.73 251.496C603.242 250.045 603.498 248.595 603.498 247.144C603.498 245.309 603.093 243.901 602.282 242.92C601.514 241.896 600.511 241.363 599.274 241.32L598.89 240.936C600.81 240.637 602.687 240.637 604.522 240.936C606.399 241.235 607.935 241.875 609.13 242.856C610.325 243.795 610.922 245.139 610.922 246.888C610.922 248.168 610.538 249.469 609.77 250.792C609.045 252.072 607.999 253.267 606.634 254.376C605.269 255.443 603.647 256.296 601.77 256.936C599.893 257.576 597.845 257.896 595.626 257.896C593.237 257.896 591.231 257.469 589.61 256.616C588.031 255.763 586.837 254.547 586.026 252.968C585.258 251.389 584.874 249.533 584.874 247.4C584.874 245.181 585.237 242.941 585.962 240.68C586.73 238.376 587.797 236.179 589.162 234.088C590.527 231.997 592.149 230.141 594.026 228.52C595.903 226.856 597.951 225.533 600.17 224.552C602.389 223.571 604.757 223.08 607.274 223.08C609.493 223.08 611.306 223.528 612.714 224.424C614.122 225.277 614.826 226.685 614.826 228.648C614.826 230.568 614.165 232.339 612.842 233.96C611.519 235.581 609.749 237.011 607.53 238.248C605.354 239.485 602.943 240.467 600.298 241.192C597.695 241.875 595.071 242.259 592.426 242.344L592.682 241.448C594.645 241.277 596.565 240.829 598.442 240.104C600.319 239.336 602.005 238.355 603.498 237.16C605.034 235.923 606.229 234.515 607.082 232.936C607.978 231.315 608.426 229.544 608.426 227.624C608.426 226.429 608.213 225.576 607.786 225.064C607.359 224.552 606.762 224.296 605.994 224.296C604.799 224.296 603.455 224.915 601.962 226.152C600.511 227.389 599.125 229.117 597.802 231.336C596.479 233.512 595.391 236.008 594.538 238.824C593.685 241.597 593.258 244.541 593.258 247.656C593.258 250.472 593.642 252.669 594.41 254.248C595.221 255.827 596.33 256.616 597.738 256.616Z" fill="#393939"/>
<path d="M1.496 166.968H39L25.432 153.4L29.016 149.88L48.92 169.784L29.016 189.688L25.432 186.104L39 172.6H1.496V166.968Z" fill="#1069FD"/>
</svg>
