<svg width="144" height="57" viewBox="0 0 144 57" fill="none" xmlns="http://www.w3.org/2000/svg">
<path d="M122.109 45.1749C122.109 38.6506 125.93 33.3711 133.269 33.3711C140.609 33.3711 144 38.6506 144 45.1749C144 45.69 143.957 46.4626 143.957 46.4626H128.162C128.419 49.8965 129.878 52.4718 133.484 52.4718C137.132 52.4718 137.776 49.038 137.776 49.038H143.786C143.786 49.038 142.498 56.9788 133.269 56.9788C125.758 56.9788 122.109 51.6992 122.109 45.1749ZM133.269 37.878C130.308 37.878 128.848 39.8525 128.333 42.5995H137.819C137.433 39.8525 136.231 37.878 133.269 37.878Z" fill="#1D1F26"/>
<path d="M101.701 56.3356V34.0156H107.71V43.0295L115.651 34.0156H122.733L114.321 42.729L123.163 56.3356H115.823L110.157 47.0213L107.71 49.5538V56.3356H101.701Z" fill="#1D1F26"/>
<path d="M85.8347 40.8826H79.8255C80.1689 35.1739 84.7616 33.3711 89.9124 33.3711C95.2778 33.3711 99.5701 35.3026 99.5701 41.0972V56.3349H93.5609V52.0426H93.3462C93.3462 52.0426 91.9727 56.9788 86.2639 56.9788C82.1863 56.9788 79.1816 55.0901 79.1816 50.9695C79.1816 46.806 82.6155 44.9174 86.3069 43.9731C90.0412 43.0288 93.5609 42.7283 93.5609 40.2388C93.5609 38.4789 92.2732 37.4488 89.9124 37.4488C87.337 37.4488 85.9206 38.4789 85.8347 40.8826ZM93.5609 45.0891C92.5736 45.9905 90.5562 46.4626 88.8393 46.8918C86.9078 47.364 85.2767 48.3512 85.2767 50.3257C85.2767 52.0426 86.4785 53.1157 88.4101 53.1157C92.4878 53.1157 93.5609 48.3942 93.5609 45.0891Z" fill="#1D1F26"/>
<path d="M58.372 56.3349V43.8872C58.372 40.0242 57.5994 38.3072 55.2387 38.3072C52.6633 38.3072 51.2897 40.2388 51.2897 44.7457V56.3349H45.2805V34.0149H51.0751V37.6634H51.2897C51.2897 37.6634 52.792 33.3711 57.299 33.3711C60.9045 33.3711 62.836 35.088 63.6945 37.7063L63.7374 37.6634H63.952C63.952 37.6634 65.8836 33.3711 70.3905 33.3711C75.9705 33.3711 77.4728 37.4488 77.4728 42.5995V56.3349H71.4636V43.8872C71.4636 40.0242 70.691 38.3072 68.3302 38.3072C65.7548 38.3072 64.3813 40.2388 64.3813 44.7457V56.3349H58.372Z" fill="#1D1F26"/>
<path d="M26.5952 45.1749C26.5952 49.2097 28.1404 52.4718 31.9605 52.4718C35.7807 52.4718 37.3259 49.2097 37.3259 45.1749C37.3259 41.1402 35.7807 37.878 31.9605 37.878C28.1404 37.878 26.5952 41.1402 26.5952 45.1749ZM20.5859 45.1749C20.5859 38.6506 24.6207 33.3711 31.9605 33.3711C39.3004 33.3711 43.3351 38.6506 43.3351 45.1749C43.3351 51.6992 39.3004 56.9788 31.9605 56.9788C24.6207 56.9788 20.5859 51.6992 20.5859 45.1749Z" fill="#1D1F26"/>
<path d="M0 34.0146H20.1738V38.7362H12.8769V49.2523C12.8769 51.1839 13.5208 51.8277 15.4523 51.8277C16.74 51.8277 17.3838 51.6131 17.3838 51.6131V56.12C17.3838 56.12 16.3107 56.5492 13.7354 56.5492C9.65768 56.5492 6.86768 55.4762 6.86768 50.3254V38.7362H0V34.0146Z" fill="#1D1F26"/>
<path d="M107.521 11.8038C107.521 5.27953 111.342 0 118.681 0C126.021 0 129.412 5.27953 129.412 11.8038C129.412 12.3189 129.369 13.0915 129.369 13.0915H113.574C113.831 16.5254 115.291 19.1007 118.896 19.1007C122.545 19.1007 123.188 15.6669 123.188 15.6669H129.198C129.198 15.6669 127.91 23.6077 118.681 23.6077C111.17 23.6077 107.521 18.3281 107.521 11.8038ZM118.681 4.50692C115.72 4.50692 114.26 6.48138 113.745 9.22845H123.231C122.845 6.48138 121.643 4.50692 118.681 4.50692Z" fill="#1D1F26"/>
<path d="M87.1133 22.9635V0.643555H93.1225V9.65739L101.063 0.643555H108.146L99.7326 9.35693L108.575 22.9635H101.235L95.5691 13.6492L93.1225 16.1817V22.9635H87.1133Z" fill="#1D1F26"/>
<path d="M71.2468 7.51153H65.2376C65.581 1.80277 70.1737 0 75.3245 0C80.6899 0 84.9822 1.93154 84.9822 7.72614V22.9638H78.973V18.6715H78.7583C78.7583 18.6715 77.3848 23.6077 71.676 23.6077C67.5984 23.6077 64.5938 21.7191 64.5938 17.5984C64.5938 13.4349 68.0276 11.5463 71.719 10.602C75.4533 9.65768 78.973 9.35722 78.973 6.86768C78.973 5.10784 77.6853 4.07769 75.3245 4.07769C72.7491 4.07769 71.3327 5.10784 71.2468 7.51153ZM78.973 11.718C77.9857 12.6194 75.9683 13.0915 74.2514 13.5208C72.3199 13.9929 70.6888 14.9801 70.6888 16.9546C70.6888 18.6715 71.8907 19.7446 73.8222 19.7446C77.8999 19.7446 78.973 15.0231 78.973 11.718Z" fill="#1D1F26"/>
<path d="M43.5515 0.643555H63.7253V5.36509H56.4284V15.8812C56.4284 17.8128 57.0723 18.4566 59.0038 18.4566C60.2915 18.4566 60.9353 18.242 60.9353 18.242V22.7489C60.9353 22.7489 59.8623 23.1781 57.2869 23.1781C53.2092 23.1781 50.4192 22.1051 50.4192 16.9543V5.36509H43.5515V0.643555Z" fill="#1D1F26"/>
<path d="M26.5952 11.8038C26.5952 15.8386 28.1404 19.1007 31.9605 19.1007C35.7807 19.1007 37.3259 15.8386 37.3259 11.8038C37.3259 7.76907 35.7807 4.50692 31.9605 4.50692C28.1404 4.50692 26.5952 7.76907 26.5952 11.8038ZM20.5859 11.8038C20.5859 5.27953 24.6207 0 31.9605 0C39.3004 0 43.3351 5.27953 43.3351 11.8038C43.3351 18.3281 39.3004 23.6077 31.9605 23.6077C24.6207 23.6077 20.5859 18.3281 20.5859 11.8038Z" fill="#1D1F26"/>
<path d="M0 0.643555H20.1738V5.36509H12.8769V15.8812C12.8769 17.8128 13.5208 18.4566 15.4523 18.4566C16.74 18.4566 17.3838 18.242 17.3838 18.242V22.7489C17.3838 22.7489 16.3107 23.1781 13.7354 23.1781C9.65768 23.1781 6.86768 22.1051 6.86768 16.9543V5.36509H0V0.643555Z" fill="#1D1F26"/>
</svg>
