<svg width="76" height="30" viewBox="0 0 76 30" fill="none" xmlns="http://www.w3.org/2000/svg">
<path d="M64.4473 23.7847C64.4473 20.3496 66.4635 17.5698 70.3373 17.5698C74.2111 17.5698 76.0007 20.3496 76.0007 23.7847C76.0007 24.0559 75.9781 24.4626 75.9781 24.4626H67.6415C67.7774 26.2706 68.5476 27.6266 70.4505 27.6266C72.3761 27.6266 72.7159 25.8186 72.7159 25.8186H75.8874C75.8874 25.8186 75.2078 29.9995 70.3373 29.9995C66.3728 29.9995 64.4473 27.2198 64.4473 23.7847ZM70.3373 19.9428C68.7741 19.9428 68.0039 20.9823 67.7321 22.4287H72.7386C72.5347 20.9823 71.9004 19.9428 70.3373 19.9428Z" fill="#9FBA00"/>
<path d="M53.6758 29.6609V17.9092H56.8473V22.6551L61.0383 17.9092H64.7762L60.336 22.4969L65.0027 29.6609H61.1289L58.1386 24.7568L56.8473 26.0902V29.6609H53.6758Z" fill="#9FBA00"/>
<path d="M45.3014 21.5252H42.1298C42.3111 18.5195 44.735 17.5703 47.4535 17.5703C50.2852 17.5703 52.5506 18.5873 52.5506 21.6382V29.661H49.3791V27.4011H49.2658C49.2658 27.4011 48.5409 30 45.5279 30C43.3758 30 41.79 29.0056 41.79 26.8361C41.79 24.6439 43.6023 23.6496 45.5506 23.1524C47.5215 22.6552 49.3791 22.497 49.3791 21.1862C49.3791 20.2596 48.6995 19.7173 47.4535 19.7173C46.0943 19.7173 45.3467 20.2596 45.3014 21.5252ZM49.3791 23.74C48.858 24.2145 47.7933 24.4631 46.8871 24.6891C45.8677 24.9377 45.0069 25.4575 45.0069 26.4971C45.0069 27.4011 45.6412 27.966 46.6606 27.966C48.8127 27.966 49.3791 25.4801 49.3791 23.74Z" fill="#9FBA00"/>
<path d="M30.8071 29.661V23.1072C30.8071 21.0732 30.3994 20.1692 29.1534 20.1692C27.7942 20.1692 27.0692 21.1862 27.0692 23.5592V29.661H23.8977V17.9093H26.956V19.8303H27.0692C27.0692 19.8303 27.8621 17.5703 30.2408 17.5703C32.1437 17.5703 33.1631 18.4743 33.6162 19.8529L33.6388 19.8303H33.7521C33.7521 19.8303 34.7715 17.5703 37.1502 17.5703C40.0952 17.5703 40.8881 19.7173 40.8881 22.4292V29.661H37.7165V23.1072C37.7165 21.0732 37.3088 20.1692 36.0628 20.1692C34.7036 20.1692 33.9787 21.1862 33.9787 23.5592V29.661H30.8071Z" fill="#9FBA00"/>
<path d="M14.0368 23.7847C14.0368 25.909 14.8523 27.6266 16.8685 27.6266C18.8847 27.6266 19.7002 25.909 19.7002 23.7847C19.7002 21.6603 18.8847 19.9428 16.8685 19.9428C14.8523 19.9428 14.0368 21.6603 14.0368 23.7847ZM10.8652 23.7847C10.8652 20.3496 12.9947 17.5698 16.8685 17.5698C20.7423 17.5698 22.8718 20.3496 22.8718 23.7847C22.8718 27.2198 20.7423 29.9995 16.8685 29.9995C12.9947 29.9995 10.8652 27.2198 10.8652 23.7847Z" fill="#9FBA00"/>
<path d="M0 17.9097H10.6473V20.3956H6.79615V25.9325C6.79615 26.9494 7.13595 27.2884 8.15537 27.2884C8.83499 27.2884 9.1748 27.1754 9.1748 27.1754V29.5484C9.1748 29.5484 8.60845 29.7744 7.24922 29.7744C5.09711 29.7744 3.62461 29.2094 3.62461 26.4974V20.3956H0V17.9097Z" fill="#9FBA00"/>
<path d="M56.7471 6.21484C56.7471 2.77973 58.7633 0 62.6371 0C66.5109 0 68.3005 2.77973 68.3005 6.21484C68.3005 6.48603 68.2779 6.89282 68.2779 6.89282H59.9413C60.0772 8.70078 60.8474 10.0567 62.7503 10.0567C64.6759 10.0567 65.0157 8.24879 65.0157 8.24879H68.1872C68.1872 8.24879 67.5076 12.4297 62.6371 12.4297C58.6726 12.4297 56.7471 9.64995 56.7471 6.21484ZM62.6371 2.37294C61.0739 2.37294 60.3037 3.41251 60.0319 4.85887H65.0384C64.8345 3.41251 64.2002 2.37294 62.6371 2.37294Z" fill="#9FBA00"/>
<path d="M45.9766 12.0906V0.338867H49.1481V5.08475L53.3391 0.338867H57.0769L52.6368 4.92655L57.3035 12.0906H53.4297L50.4394 7.18649L49.1481 8.51986V12.0906H45.9766Z" fill="#9FBA00"/>
<path d="M37.6031 3.9549H34.4316C34.6128 0.949175 37.0368 0 39.7552 0C42.587 0 44.8524 1.01697 44.8524 4.06789V12.0907H41.6808V9.83075H41.5676C41.5676 9.83075 40.8426 12.4297 37.8297 12.4297C35.6776 12.4297 34.0918 11.4353 34.0918 9.26576C34.0918 7.07362 35.9041 6.07924 37.8523 5.58206C39.8232 5.08487 41.6808 4.92667 41.6808 3.61591C41.6808 2.68933 41.0012 2.14694 39.7552 2.14694C38.396 2.14694 37.6484 2.68933 37.6031 3.9549ZM41.6808 6.16964C41.1598 6.64423 40.0951 6.89282 39.1889 7.11882C38.1695 7.36741 37.3086 7.8872 37.3086 8.92677C37.3086 9.83075 37.9429 10.3957 38.9624 10.3957C41.1145 10.3957 41.6808 7.9098 41.6808 6.16964Z" fill="#9FBA00"/>
<path d="M22.9863 0.338867H33.6336V2.8248H29.7825V8.36166C29.7825 9.37863 30.1223 9.71763 31.1417 9.71763C31.8213 9.71763 32.1611 9.60463 32.1611 9.60463V11.9776C32.1611 11.9776 31.5948 12.2036 30.2355 12.2036C28.0834 12.2036 26.6109 11.6386 26.6109 8.92665V2.8248H22.9863V0.338867Z" fill="#9FBA00"/>
<path d="M14.0368 6.21484C14.0368 8.33918 14.8523 10.0567 16.8685 10.0567C18.8847 10.0567 19.7002 8.33918 19.7002 6.21484C19.7002 4.0905 18.8847 2.37294 16.8685 2.37294C14.8523 2.37294 14.0368 4.0905 14.0368 6.21484ZM10.8652 6.21484C10.8652 2.77973 12.9947 0 16.8685 0C20.7423 0 22.8718 2.77973 22.8718 6.21484C22.8718 9.64995 20.7423 12.4297 16.8685 12.4297C12.9947 12.4297 10.8652 9.64995 10.8652 6.21484Z" fill="#9FBA00"/>
<path d="M0 0.338867H10.6473V2.8248H6.79615V8.36166C6.79615 9.37863 7.13595 9.71763 8.15537 9.71763C8.83499 9.71763 9.1748 9.60463 9.1748 9.60463V11.9776C9.1748 11.9776 8.60845 12.2036 7.24922 12.2036C5.09711 12.2036 3.62461 11.6386 3.62461 8.92665V2.8248H0V0.338867Z" fill="#9FBA00"/>
</svg>
